HIERARCHY
ROOT Hips
{
    OFFSET   0.000000   0.000000   0.000000
    CHANNELS 6 Xposition Yposition Zposition Zrotation Xrotation Yrotation
    JOINT Chest
    {
        OFFSET   0.000000   8.007230   0.000000
        CHANNELS 3 Zrotation Xrotation Yrotation
        JOINT Chest2
        {
            OFFSET   0.000000  22.077100   0.000000
            CHANNELS 3 Zrotation Xrotation Yrotation
            JOINT Neck
            {
                OFFSET   0.000000  23.254800   0.000000
                CHANNELS 3 Zrotation Xrotation Yrotation
                JOINT Head
                {
                    OFFSET   0.000010  14.370000   1.956600
                    CHANNELS 3 Zrotation Xrotation Yrotation
                    End Site
                    {
                        OFFSET   0.000000  19.566000   0.000000
                    }
                }
            }
            JOINT LeftCollar
            {
                OFFSET   3.911900  19.017000  -0.467062
                CHANNELS 3 Zrotation Xrotation Yrotation
                JOINT LeftShoulder
                {
                    OFFSET  10.383700   0.000000   0.000000
                    CHANNELS 3 Zrotation Xrotation Yrotation
                    JOINT LeftElbow
                    {
                        OFFSET  26.662100   0.001193   0.000835
                        CHANNELS 3 Zrotation Xrotation Yrotation
                        JOINT LeftWrist
                        {
                            OFFSET  28.869000  -0.000058  -0.000075
                            CHANNELS 3 Zrotation Xrotation Yrotation
                            JOINT LeftFinger0
                            {
                                OFFSET   2.044660  -2.323460   3.252850
                                CHANNELS 3 Zrotation Xrotation Yrotation
                                JOINT LeftFinger01
                                {
                                    OFFSET   3.088130   0.000000   0.000000
                                    CHANNELS 3 Zrotation Xrotation Yrotation
                                    JOINT LeftFinger02
                                    {
                                        OFFSET   2.639450   0.000000   0.000000
                                        CHANNELS 3 Zrotation Xrotation Yrotation
                                        End Site
                                        {
                                            OFFSET   2.582190   0.000000   0.000000
                                        }
                                    }
                                }
                            }
                            JOINT LeftFinger1
                            {
                                OFFSET   8.364480   0.000000   3.252850
                                CHANNELS 3 Zrotation Xrotation Yrotation
                                JOINT LeftFinger11
                                {
                                    OFFSET   4.646920   0.000000   0.000000
                                    CHANNELS 3 Zrotation Xrotation Yrotation
                                    JOINT LeftFinger12
                                    {
                                        OFFSET   2.323460   0.000000   0.000000
                                        CHANNELS 3 Zrotation Xrotation Yrotation
                                        End Site
                                        {
                                            OFFSET   2.273050   0.000000   0.000000
                                        }
                                    }
                                }
                            }
                            JOINT LeftFinger2
                            {
                                OFFSET   8.364490   0.000016   1.078090
                                CHANNELS 3 Zrotation Xrotation Yrotation
                                JOINT LeftFinger21
                                {
                                    OFFSET   5.111620   0.000000   0.000000
                                    CHANNELS 3 Zrotation Xrotation Yrotation
                                    JOINT LeftFinger22
                                    {
                                        OFFSET   2.788150   0.000012   0.000000
                                        CHANNELS 3 Zrotation Xrotation Yrotation
                                        End Site
                                        {
                                            OFFSET   2.727660   0.000000   0.000000
                                        }
                                    }
                                }
                            }
                            JOINT LeftFinger3
                            {
                                OFFSET   7.899780   0.000014  -1.078090
                                CHANNELS 3 Zrotation Xrotation Yrotation
                                JOINT LeftFinger31
                                {
                                    OFFSET   4.646930   0.000000   0.000000
                                    CHANNELS 3 Zrotation Xrotation Yrotation
                                    JOINT LeftFinger32
                                    {
                                        OFFSET   2.323470   0.000000   0.000000
                                        CHANNELS 3 Zrotation Xrotation Yrotation
                                        End Site
                                        {
                                            OFFSET   2.273050   0.000000   0.000000
                                        }
                                    }
                                }
                            }
                            JOINT LeftFinger4
                            {
                                OFFSET   7.435090   0.000000  -3.252850
                                CHANNELS 3 Zrotation Xrotation Yrotation
                                JOINT LeftFinger41
                                {
                                    OFFSET   3.717550   0.000000   0.000000
                                    CHANNELS 3 Zrotation Xrotation Yrotation
                                    JOINT LeftFinger42
                                    {
                                        OFFSET   1.858770   0.000000   0.000000
                                        CHANNELS 3 Zrotation Xrotation Yrotation
                                        End Site
                                        {
                                            OFFSET   1.818440   0.000000   0.000000
                                        }
                                    }
                                }
                            }
                        }
                    }
                }
            }
            JOINT RightCollar
            {
                OFFSET  -3.911900  19.017000  -0.467063
                CHANNELS 3 Zrotation Xrotation Yrotation
                JOINT RightShoulder
                {
                    OFFSET -10.383700   0.000023   0.000000
                    CHANNELS 3 Zrotation Xrotation Yrotation
                    JOINT RightElbow
                    {
                        OFFSET -26.662100   0.001246   0.001011
                        CHANNELS 3 Zrotation Xrotation Yrotation
                        JOINT RightWrist
                        {
                            OFFSET -28.869000  -0.000026  -0.000078
                            CHANNELS 3 Zrotation Xrotation Yrotation
                            JOINT RightFinger0
                            {
                                OFFSET  -2.044660  -2.323490   3.252850
                                CHANNELS 3 Zrotation Xrotation Yrotation
                                JOINT RightFinger01
                                {
                                    OFFSET  -3.088130   0.000000   0.000000
                                    CHANNELS 3 Zrotation Xrotation Yrotation
                                    JOINT RightFinger02
                                    {
                                        OFFSET  -2.639460   0.000000   0.000000
                                        CHANNELS 3 Zrotation Xrotation Yrotation
                                        End Site
                                        {
                                            OFFSET  -2.582190   0.000000   0.000000
                                        }
                                    }
                                }
                            }
                            JOINT RightFinger1
                            {
                                OFFSET  -8.364480   0.000000   3.252850
                                CHANNELS 3 Zrotation Xrotation Yrotation
                                JOINT RightFinger11
                                {
                                    OFFSET  -4.646920   0.000000   0.000000
                                    CHANNELS 3 Zrotation Xrotation Yrotation
                                    JOINT RightFinger12
                                    {
                                        OFFSET  -2.323470   0.000000   0.000000
                                        CHANNELS 3 Zrotation Xrotation Yrotation
                                        End Site
                                        {
                                            OFFSET  -2.273050   0.000000   0.000000
                                        }
                                    }
                                }
                            }
                            JOINT RightFinger2
                            {
                                OFFSET  -8.364480   0.000000   1.078090
                                CHANNELS 3 Zrotation Xrotation Yrotation
                                JOINT RightFinger21
                                {
                                    OFFSET  -5.111620   0.000000   0.000000
                                    CHANNELS 3 Zrotation Xrotation Yrotation
                                    JOINT RightFinger22
                                    {
                                        OFFSET  -2.788160   0.000000   0.000000
                                        CHANNELS 3 Zrotation Xrotation Yrotation
                                        End Site
                                        {
                                            OFFSET  -2.727660   0.000000   0.000000
                                        }
                                    }
                                }
                            }
                            JOINT RightFinger3
                            {
                                OFFSET  -7.899780   0.000000  -1.078090
                                CHANNELS 3 Zrotation Xrotation Yrotation
                                JOINT RightFinger31
                                {
                                    OFFSET  -4.646930   0.000000   0.000000
                                    CHANNELS 3 Zrotation Xrotation Yrotation
                                    JOINT RightFinger32
                                    {
                                        OFFSET  -2.323470   0.000000   0.000000
                                        CHANNELS 3 Zrotation Xrotation Yrotation
                                        End Site
                                        {
                                            OFFSET  -2.273050   0.000000   0.000000
                                        }
                                    }
                                }
                            }
                            JOINT RightFinger4
                            {
                                OFFSET  -7.435090   0.000000  -3.252850
                                CHANNELS 3 Zrotation Xrotation Yrotation
                                JOINT RightFinger41
                                {
                                    OFFSET  -3.717550   0.000000   0.000000
                                    CHANNELS 3 Zrotation Xrotation Yrotation
                                    JOINT RightFinger42
                                    {
                                        OFFSET  -1.858760   0.000000   0.000000
                                        CHANNELS 3 Zrotation Xrotation Yrotation
                                        End Site
                                        {
                                            OFFSET  -1.818440   0.000000   0.000000
                                        }
                                    }
                                }
                            }
                        }
                    }
                }
            }
        }
    }
    JOINT LeftHip
    {
        OFFSET   9.783010   0.000000   0.000000
        CHANNELS 3 Zrotation Xrotation Yrotation
        JOINT LeftKnee
        {
            OFFSET   0.000073 -41.789100   0.001749
            CHANNELS 3 Zrotation Xrotation Yrotation
            JOINT LeftAnkle
            {
                OFFSET   0.000111 -41.133200  -0.000179
                CHANNELS 3 Zrotation Xrotation Yrotation
                JOINT LeftToe
                {
                    OFFSET   0.000000  -6.358960  14.674500
                    CHANNELS 3 Zrotation Xrotation Yrotation
                    End Site
                    {
                        OFFSET   0.000000   0.000000   3.913200
                    }
                }
            }
        }
    }
    JOINT RightHip
    {
        OFFSET  -9.783010   0.000000   0.000000
        CHANNELS 3 Zrotation Xrotation Yrotation
        JOINT RightKnee
        {
            OFFSET   0.000424 -41.789200   0.005205
            CHANNELS 3 Zrotation Xrotation Yrotation
            JOINT RightAnkle
            {
                OFFSET   0.000000 -41.133200  -0.000155
                CHANNELS 3 Zrotation Xrotation Yrotation
                JOINT RightToe
                {
                    OFFSET   0.000000  -6.358960  14.674500
                    CHANNELS 3 Zrotation Xrotation Yrotation
                    End Site
                    {
                        OFFSET   0.000000   0.000000   3.913200
                    }
                }
            }
        }
    }
}
MOTION
Frames: 4
Frame Time:   0.016667
  2.417120  89.003200   1.647540  -1.801860 -23.027500   5.955200  -0.122440  11.554300   1.778080  -0.645387  23.098800   3.698380   2.367920   2.155020  -0.086124   3.903830   4.347700   0.776006  -4.716020  -7.398170  -3.055010 -66.677000  26.060000 -10.677500  -0.624072  -1.454980 -10.562500  15.621800  -3.001420   0.555703  39.536000  30.558900 -48.797400 -30.704200  -0.002885   0.002089 -10.352500  -0.002591  -0.001502 -32.668200   8.175780 -12.496000 -27.462000   0.003465  -0.000811 -19.223400   0.003454   0.001418 -29.058000   0.648444  -1.166400 -43.596500  -0.000570   0.002119 -29.035200  -0.001803   0.012134 -28.768100   0.642524  -1.170160 -40.987700   0.001391  -0.001252 -27.297800   0.000823   0.010708 -34.845500   0.274404  -0.392987 -52.270400   0.001919   0.003142 -34.812100   0.002611   0.001619   4.480930  -9.673770   8.351100   5.708640 -23.162800  62.659000 -15.642300  13.677900  11.469400  -8.101890   9.172070  19.886300 -38.452600  46.455800  66.053600  48.491700   0.006397  -0.007188  25.639800   0.005186   0.006821  88.994000   4.997170   0.086496  76.914800   0.001770  -0.000493  57.686100  -0.006574  -0.000419  89.000000  -0.001195   0.011293  92.922600   0.000655   0.000228  69.691800   0.000150  -0.001333  88.995700  -4.999890  -0.092830  98.629200  -0.002986   0.000324  73.971900   0.000000  -0.001249  88.984100 -10.000700  -0.179400 110.000000  -0.001375   0.003866  80.000000   0.003974   0.003103   1.998970  24.096600   0.785489  -0.142236   0.051327   3.653570  -0.983636  -2.422700  -5.218190  -0.000000   0.000000   0.000000   4.858250  16.680600  -7.154290  -1.421780  17.557500 -20.357100   1.906000 -10.852400   4.642210   0.000000   0.000000  -0.000000
  2.411170  89.032700   1.628450  -1.953380 -23.340800   5.687510  -0.112522  11.663000   1.872620  -0.644614  23.315600   3.894480   2.383660   2.115230  -0.086287   3.930820   4.267140   0.770028  -4.774650  -7.488730  -3.067710 -66.880600  25.513000 -10.154000  -0.626964  -1.557020 -10.550500  15.665900  -3.511020   0.611186  39.533200  30.537300 -49.080900 -30.692300  -0.002889   0.002073 -10.346100  -0.002592  -0.001514 -32.747000   8.275980 -12.614500 -27.544500   0.003466  -0.000761 -19.281100   0.003456   0.001470 -29.134500   0.679340  -1.218240 -43.711900  -0.000571   0.002171 -29.112100  -0.001801   0.012128 -28.770800   0.671565  -1.222750 -41.214700   0.001386  -0.001255 -27.449000   0.000824   0.010712 -34.974800   0.244414  -0.348898 -52.463800   0.001918   0.003140 -34.940900   0.002611   0.001620   4.445040  -9.663920   8.347970   5.900060 -23.095000  62.712000 -15.615600  13.668800  11.457700  -8.160260   8.974980  19.879500 -38.319700  46.364000  65.963800  48.580500   0.006495  -0.007450  25.693700   0.005504   0.006992  88.993500   4.997210   0.086605  77.555800   0.001899  -0.000159  58.166800  -0.006548  -0.000501  89.000000  -0.001334   0.011244  93.030000   0.000422   0.000386  69.772400   0.000293  -0.001558  88.995700  -4.999860  -0.092888  98.734100  -0.002864   0.000385  74.050600   0.000000  -0.001416  88.984000 -10.000500  -0.179444 110.000000  -0.001387   0.003897  80.000000   0.004008   0.003167   2.023870  24.351500   0.479159  -0.124606   0.177699   3.701620  -0.893999  -2.414800  -4.768200   0.000000   0.000000   0.000000   4.982070  17.073300  -7.177320  -1.462100  17.407300 -20.397900   1.905430 -10.854000   4.819870  -0.000000   0.000000   0.000000
  2.411210  89.057900   1.597300  -2.120590 -23.563200   5.409480  -0.093896  11.734900   1.930330  -0.622178  23.460000   4.011570   2.363490   2.091590  -0.085846   3.898640   4.219670   0.845476  -4.837560  -7.544410  -3.019880 -67.010200  25.191900  -9.660020  -0.657771  -1.826340 -10.621400  15.593400  -3.941600   0.609897  39.622000  30.691200 -49.469200 -30.664500  -0.002889   0.002048 -10.332200  -0.002590  -0.001509 -32.818900   8.162270 -12.418600 -27.586100   0.003468  -0.000700 -19.310300   0.003457   0.001517 -29.143800   0.714049  -1.279810 -43.726700  -0.000567   0.002223 -29.122000  -0.001803   0.012118 -28.770300   0.705542  -1.284500 -41.340300   0.001387  -0.001253 -27.532600   0.000821   0.010716 -35.043700   0.228570  -0.325952 -52.566600   0.001917   0.003132 -35.009400   0.002611   0.001620   4.423590  -9.622470   8.430320   6.098220 -23.060000  62.850000 -15.553900  13.769300  11.359100  -8.110020   8.926130  19.882100 -38.244800  46.305500  65.909500  48.638700   0.006592  -0.007468  25.730400   0.005828   0.007156  88.992900   4.997240   0.086703  78.168400   0.002029   0.000171  58.626300  -0.006496  -0.000590  89.000000  -0.001450   0.011188  93.107200   0.000209   0.000533  69.830300   0.000411  -0.001768  88.995700  -4.999830  -0.092960  98.828000  -0.002712   0.000402  74.121100  -0.000012  -0.001587  88.984000 -10.000300  -0.179489 110.000000  -0.001410   0.003934  80.000000   0.004030   0.003235   2.049320  24.468100   0.246005  -0.112040   0.404678   3.797930  -0.841778  -2.494950  -4.423850   0.000000   0.000000  -0.000000   5.020950  17.404300  -7.229740  -1.462140  17.216000 -20.290800   1.988090 -10.817900   4.956670  -0.000000   0.000000   0.000000
  2.411260  89.079400   1.558570  -2.283740 -23.668500   5.095840  -0.075340  11.766200   1.979750  -0.595951  23.522200   4.110410   2.343300   2.073710  -0.084866   3.863870   4.183900   0.955635  -4.900670  -7.588980  -2.971960 -67.123000  24.939000  -9.175030  -0.696207  -2.141570 -10.734600  15.462100  -4.184140   0.598960  39.738400  30.884600 -49.854700 -30.635500  -0.002889   0.002018 -10.317800  -0.002589  -0.001502 -32.874900   8.048280 -12.222900 -27.602900   0.003469  -0.000639 -19.322100   0.003457   0.001564 -29.143900   0.744885  -1.335920 -43.728800  -0.000562   0.002275 -29.123400  -0.001805   0.012108 -28.769200   0.736298  -1.340490 -41.395300   0.001390  -0.001250 -27.569200   0.000817   0.010718 -35.073000   0.221893  -0.316413 -52.610100   0.001917   0.003122 -35.038400   0.002611   0.001621   4.401870  -9.550210   8.528040   6.330950 -23.046100  63.030200 -15.508800  13.943200  11.280900  -8.071550   8.907470  19.890500 -38.155900  46.243600  65.817500  48.667600   0.006673  -0.007480  25.749000   0.006161   0.007311  88.992400   4.997270   0.086802  78.683400   0.002163   0.000498  59.012600  -0.006429  -0.000682  89.000000  -0.001550   0.011124  93.143900   0.000000   0.000656  69.857900   0.000515  -0.001992  88.995700  -4.999800  -0.093029  98.878700  -0.002546   0.000405  74.159100  -0.000068  -0.001766  88.984100 -10.000200  -0.179533 110.000000  -0.001434   0.003970  80.000000   0.004044   0.003302   2.071820  24.496300   0.070620  -0.105473   0.624974   3.902030  -0.801583  -2.620360  -4.112200   0.000000   0.000000   0.000000   5.040960  17.658600  -7.285640  -1.442350  17.007300 -20.064100   2.109740 -10.757600   5.065170  -0.000000   0.000000   0.000000
